<?xml version="1.0" encoding="UTF-8" standalone="no"?>
<!-- Created with Inkscape (http://www.inkscape.org/) -->

<svg
   xmlns:dc="http://purl.org/dc/elements/1.1/"
   xmlns:cc="http://creativecommons.org/ns#"
   xmlns:rdf="http://www.w3.org/1999/02/22-rdf-syntax-ns#"
   xmlns:svg="http://www.w3.org/2000/svg"
   xmlns="http://www.w3.org/2000/svg"
   xmlns:sodipodi="http://sodipodi.sourceforge.net/DTD/sodipodi-0.dtd"
   xmlns:inkscape="http://www.inkscape.org/namespaces/inkscape"
   width="76.40683mm"
   height="31.385443mm"
   viewBox="0 0 76.40683 31.385443"
   version="1.1"
   id="svg1100"
   inkscape:version="0.92.4 (5da689c313, 2019-01-14)"
   sodipodi:docname="zigzag_logo.svg">
  <defs
     id="defs1094" />
  <sodipodi:namedview
     id="base"
     pagecolor="#ffffff"
     bordercolor="#666666"
     borderopacity="1.0"
     inkscape:pageopacity="0.0"
     inkscape:pageshadow="2"
     inkscape:zoom="1.4"
     inkscape:cx="34.102099"
     inkscape:cy="20.615108"
     inkscape:document-units="mm"
     inkscape:current-layer="layer1"
     showgrid="false"
     inkscape:window-width="1280"
     inkscape:window-height="657"
     inkscape:window-x="-8"
     inkscape:window-y="-8"
     inkscape:window-maximized="1" />
  <metadata
     id="metadata1097">
    <rdf:RDF>
      <cc:Work
         rdf:about="">
        <dc:format>image/svg+xml</dc:format>
        <dc:type
           rdf:resource="http://purl.org/dc/dcmitype/StillImage" />
        <dc:title></dc:title>
      </cc:Work>
    </rdf:RDF>
  </metadata>
  <g
     inkscape:label="Layer 1"
     inkscape:groupmode="layer"
     id="layer1"
     transform="translate(-79.253574,-105.33263)">
    <path
       style="opacity:0.98999999;fill:#ffffff;fill-opacity:1;stroke:#fcfcfc;stroke-width:0.34796944;stroke-linejoin:round;stroke-miterlimit:4;stroke-dasharray:none;stroke-dashoffset:0;stroke-opacity:1"
       d="m 82.893003,105.50661 h 69.127977 c 1.91985,0 3.46544,1.54559 3.46544,3.46544 v 24.10659 c 0,1.91985 -1.54559,3.46544 -3.46544,3.46544 H 82.893003 c -1.919856,0 -3.465444,-1.54559 -3.465444,-3.46544 v -24.10659 c 0,-1.91985 1.545588,-3.46544 3.465444,-3.46544 z"
       id="rect3051" />
    <path
       style="opacity:0.98999999;fill:#1da1f2;fill-opacity:1;stroke:none;stroke-width:0.05813466;stroke-linejoin:round;stroke-miterlimit:4;stroke-dasharray:none;stroke-dashoffset:0;stroke-opacity:1"
       d="m 86.168259,113.88653 h 11.020749 v 2.32016 H 86.168259 Z"
       id="rect3053" />
    <path
       transform="rotate(-60)"
       style="opacity:0.98999999;fill:#1da1f2;fill-opacity:1;stroke:none;stroke-width:0.06695125;stroke-linejoin:round;stroke-miterlimit:4;stroke-dasharray:none;stroke-dashoffset:0;stroke-opacity:1"
       d="m -66.660439,139.95134 h 14.616993 v 2.32016 h -14.616993 z"
       id="rect3055" />
    <path
       style="opacity:0.98999999;fill:#1da1f2;fill-opacity:1;stroke:none;stroke-width:0.13993491;stroke-linejoin:round;stroke-miterlimit:4;stroke-dasharray:none;stroke-dashoffset:0;stroke-opacity:1"
       d="m 87.871185,127.70529 h 63.854705 v 2.32016 H 87.871185 Z"
       id="rect3057" />
    <g
       aria-label="IGZAG"
       transform="matrix(0.09206691,0,0,0.09206691,-29.356913,104.35717)"
       style="font-style:normal;font-variant:normal;font-weight:normal;font-stretch:normal;font-size:18.66666603px;line-height:1.25;font-family:sans-serif;-inkscape-font-specification:'sans-serif, Normal';font-variant-ligatures:normal;font-variant-caps:normal;font-variant-numeric:normal;font-feature-settings:normal;text-align:start;letter-spacing:0px;word-spacing:0px;writing-mode:lr-tb;text-anchor:start;fill:#1da1f2;fill-opacity:1;stroke:none"
       id="flowRoot3065">
      <path
         d="m 1384.9375,104.60742 h 18.9375 v 139.96875 h -18.9375 z"
         style="font-size:192px;fill:#1da1f2;fill-opacity:1"
         id="path3137" />
      <path
         d="m 1537,224.60742 v -37.59375 h -30.9375 v -15.5625 h 49.6875 v 60.09375 q -10.9687,7.78125 -24.1875,11.8125 -13.2187,3.9375 -28.2187,3.9375 -32.8125,0 -51.375,-19.125 -18.4688,-19.21875 -18.4688,-53.4375 0,-34.3125 18.4688,-53.4375 18.5625,-19.21875 51.375,-19.21875 13.6875,0 25.9687,3.375 12.375,3.375 22.7813,9.9375 v 20.15625 q -10.5,-8.90625 -22.3125,-13.40625 -11.8125,-4.5 -24.8438,-4.5 -25.6875,0 -38.625,14.34375 -12.8437,14.34375 -12.8437,42.75 0,28.3125 12.8437,42.65625 12.9375,14.34375 38.625,14.34375 10.0313,0 17.9063,-1.6875 7.875,-1.78125 14.1562,-5.4375 z"
         style="font-size:192px;fill:#1da1f2;fill-opacity:1"
         id="path3139" />
      <path
         d="m 1582.375,104.60742 h 109.9688 v 14.4375 l -88.5,109.59375 H 1694.5 v 15.9375 h -114.2812 v -14.4375 l 88.5,-109.59375 h -86.3438 z"
         style="font-size:192px;fill:#1da1f2;fill-opacity:1"
         id="path3141" />
      <path
         d="m 1768.8438,123.26367 -25.6875,69.65625 h 51.4687 z m -10.6875,-18.65625 h 21.4687 l 53.3438,139.96875 h -19.6875 l -12.75,-35.90625 h -63.0938 l -12.75,35.90625 h -19.9687 z"
         style="font-size:192px;fill:#1da1f2;fill-opacity:1"
         id="path3143" />
      <path
         d="m 1945.375,224.60742 v -37.59375 h -30.9375 v -15.5625 h 49.6875 v 60.09375 q -10.9687,7.78125 -24.1875,11.8125 -13.2187,3.9375 -28.2187,3.9375 -32.8125,0 -51.375,-19.125 -18.4688,-19.21875 -18.4688,-53.4375 0,-34.3125 18.4688,-53.4375 18.5625,-19.21875 51.375,-19.21875 13.6875,0 25.9687,3.375 12.375,3.375 22.7813,9.9375 v 20.15625 q -10.5,-8.90625 -22.3125,-13.40625 -11.8125,-4.5 -24.8438,-4.5 -25.6875,0 -38.625,14.34375 -12.8437,14.34375 -12.8437,42.75 0,28.3125 12.8437,42.65625 12.9375,14.34375 38.625,14.34375 10.0313,0 17.9063,-1.6875 7.875,-1.78125 14.1562,-5.4375 z"
         style="font-size:192px;fill:#1da1f2;fill-opacity:1"
         id="path3145" />
    </g>
    <path
       style="opacity:0.98999999;fill:#1da1f2;fill-opacity:1;stroke:none;stroke-width:0.06695125;stroke-linejoin:round;stroke-miterlimit:4;stroke-dasharray:none;stroke-dashoffset:0;stroke-opacity:1"
       d="m 88.364993,112.02525 -2.588451,1.49446 -2.588447,1.49446 2.588447,1.49446 2.588451,1.49446 v -1.76121 l -0.407911,-0.23561 -1.718481,-0.9921 1.718481,-0.9921 0.407911,-0.23561 z"
       id="path3067"
       inkscape:connector-curvature="0" />
  </g>
</svg>
